<svg width="160" height="50" viewBox="0 0 160 50" fill="none" xmlns="http://www.w3.org/2000/svg">
<rect width="160" height="50" fill="#D1A954"/>
<path d="M54.6734 32L53.9352 28.7568H50.5865L49.8482 32H47.4576L50.6393 19.0977H53.8824L57.0729 32H54.6734ZM53.4869 26.6387L52.8014 23.6504C52.7604 23.4688 52.6666 23.0146 52.5201 22.2881C52.3795 21.5557 52.2945 21.0664 52.2652 20.8203C52.1891 21.3242 52.0924 21.8809 51.9752 22.4902C51.858 23.0938 51.5533 24.4766 51.0611 26.6387H53.4869ZM63.8826 18.9658H66.1326V20.5479H66.4578C67.782 20.5479 68.8074 20.9697 69.534 21.8135C70.2664 22.6572 70.6326 23.8203 70.6326 25.3027C70.6326 26.293 70.4598 27.1572 70.1141 27.8955C69.7684 28.6279 69.2645 29.1963 68.6023 29.6006C67.9461 29.999 67.1522 30.1982 66.2205 30.1982H66.1326V32.1758H63.8826V30.1982H63.7684C62.368 30.1982 61.284 29.7734 60.5164 28.9238C59.7488 28.0742 59.365 26.8906 59.365 25.373C59.365 24.4238 59.535 23.583 59.8748 22.8506C60.2147 22.1182 60.7039 21.5527 61.3426 21.1543C61.9813 20.75 62.7313 20.5479 63.5926 20.5479H63.8826V18.9658ZM66.1326 28.3965H66.2029C66.8357 28.3965 67.3221 28.127 67.6619 27.5879C68.0076 27.0488 68.1805 26.293 68.1805 25.3203C68.1805 24.3652 68.0223 23.6357 67.7059 23.1318C67.3953 22.6221 66.9471 22.3672 66.3611 22.3672H66.1326V28.3965ZM63.8826 22.3672H63.6277C63.0418 22.3672 62.5906 22.6279 62.2742 23.1494C61.9637 23.665 61.8084 24.3887 61.8084 25.3203C61.8084 26.2871 61.9813 27.043 62.327 27.5879C62.6785 28.127 63.1678 28.3965 63.7947 28.3965H63.8826V22.3672ZM74.2168 19.1504H76.4316V26.208C76.4316 26.9404 76.376 27.6641 76.2647 28.3789H76.3613L80.2813 19.1504H83.2168V32H81.0195V24.96C81.0195 24.0928 81.0869 23.3311 81.2217 22.6748H81.1074L77.1699 32H74.2168V19.1504ZM94.8254 29.8906H97.6027V19.1504H99.9934V32H87.2844V19.1504H89.675V29.8906H92.4523V19.1504H94.8254V29.8906ZM110.143 32L109.405 28.7568H106.056L105.318 32H102.927L106.109 19.0977H109.352L112.542 32H110.143ZM108.956 26.6387L108.271 23.6504C108.23 23.4688 108.136 23.0146 107.99 22.2881C107.849 21.5557 107.764 21.0664 107.735 20.8203C107.659 21.3242 107.562 21.8809 107.445 22.4902C107.328 23.0938 107.023 24.4766 106.531 26.6387H108.956Z" fill="white"/>
</svg>
